<svg width="70" height="80" viewBox="0 0 70 80" fill="none" xmlns="http://www.w3.org/2000/svg">
<g clip-path="url(#clip0_9_682)">
<path d="M36.1133 47.8333C36.1902 48.1918 36.4058 48.5052 36.7132 48.7051C37.0205 48.905 37.3945 48.9751 37.7533 48.8999H37.7433L59.9367 44.0733C60.116 44.0351 60.2857 43.9608 60.4353 43.8547C60.5849 43.7487 60.7113 43.6132 60.8067 43.4566L60.81 43.4499C60.9102 43.2915 60.9778 43.1147 61.0087 42.9298C61.0396 42.7449 61.0333 42.5557 60.99 42.3733L60.9933 42.3833C54.95 21.8199 42.7733 6.38328 27.5633 -0.0167236H27.4333C27.2259 -0.0167736 27.0211 0.0298387 26.8341 0.119663C26.6471 0.209486 26.4827 0.340221 26.353 0.502188C26.2234 0.664155 26.1318 0.853206 26.0851 1.05534C26.0385 1.25748 26.0378 1.46753 26.0833 1.66994L26.08 1.65994L36.1133 47.8333ZM14.65 53.8999L32.18 50.1066C32.5363 50.0299 32.8485 49.817 33.05 49.5133L33.0533 49.5066C33.1572 49.3568 33.2271 49.1861 33.2582 49.0065C33.2892 48.8269 33.2808 48.6426 33.2333 48.4666L33.2367 48.4766L27.6533 22.7666C27.6 22.4953 27.464 22.2472 27.2641 22.0562C27.0642 21.8653 26.8101 21.7408 26.5367 21.6999H26.53C26.4701 21.6848 26.4085 21.677 26.3467 21.6766H26.2967C26.0563 21.6765 25.8233 21.7392 25.6146 21.8584C25.4059 21.9777 25.232 22.1494 25.11 22.3566L25.1067 22.3633L24.7167 23.0299C19.5233 31.8499 15.02 39.4799 12.9833 52.3466C12.9497 52.5674 12.9693 52.7931 13.0407 53.0047C13.112 53.2164 13.2329 53.4079 13.3933 53.5633C13.5673 53.7078 13.7711 53.812 13.9901 53.8685C14.2091 53.9249 14.4379 53.9323 14.66 53.8899H14.65V53.8999ZM12.9533 67.9399C13.2346 67.9348 13.5045 67.8283 13.7133 67.6399L14.5133 66.8399C16.0277 65.3357 18.0755 64.4914 20.21 64.4914C22.3445 64.4914 24.3923 65.3357 25.9067 66.8399L26.7067 67.6399C26.8991 67.831 27.1589 67.9387 27.43 67.9399H27.4633C27.7446 67.9348 28.0145 67.8283 28.2233 67.6399L29.0733 66.7899C30.5821 65.3012 32.6171 64.4675 34.7367 64.4699C36.9567 64.4699 38.9633 65.3666 40.4233 66.8133L41.2033 67.5933C41.4069 67.791 41.6765 67.9062 41.96 67.9166C42.2412 67.9115 42.5145 67.8049 42.7233 67.6166L43.5033 66.8366C45.0177 65.3323 47.0655 64.4881 49.2 64.4881C51.3345 64.4881 53.3823 65.3323 54.8967 66.8366L55.6967 67.6366C55.8833 67.8199 56.1367 67.9366 56.42 67.9366H56.4567C56.7379 67.9315 57.0044 67.825 57.2133 67.6366L58.0133 66.8366C58.7838 66.0669 59.7038 65.4634 60.7167 65.0633L60.77 65.0433C60.84 64.9033 60.93 64.7933 61 64.6533L69.2933 47.7433C69.4154 47.4867 69.4647 47.2015 69.4359 46.9188C69.4071 46.6361 69.3013 46.3667 69.13 46.1399L69.1333 46.1433C68.9555 45.9174 68.7178 45.746 68.4472 45.6488C68.1767 45.5515 67.8843 45.5323 67.6033 45.5933L67.6133 45.5899L8.72668 58.3633C8.46253 58.4222 8.21433 58.5378 7.99922 58.7021C7.78412 58.8663 7.60722 59.0753 7.48077 59.3146C7.35431 59.5539 7.2813 59.8178 7.26678 60.088C7.25226 60.3583 7.29658 60.6285 7.39668 60.8799L7.39334 60.8666L9.27668 65.6466C10.43 66.1299 11.4133 66.7999 12.24 67.6233C12.3144 67.7218 12.4106 67.8016 12.5211 67.8566C12.6315 67.9115 12.7533 67.9401 12.8767 67.9399L12.96 67.9366L12.9533 67.9399ZM68.07 74.9699C66.9367 73.8466 65.38 73.1566 63.66 73.1566C61.94 73.1566 60.38 73.8499 59.25 74.9733L58.45 75.7733C57.9116 76.3052 57.1852 76.6035 56.4283 76.6035C55.6715 76.6035 54.9451 76.3052 54.4067 75.7733L53.6067 74.9733C52.4733 73.8499 50.9167 73.1599 49.1967 73.1599C47.4767 73.1599 45.9167 73.8533 44.7867 74.9766L44.0067 75.7566C43.4695 76.2869 42.7449 76.584 41.99 76.5833H41.97C41.5956 76.5837 41.2249 76.5086 40.8801 76.3626C40.5354 76.2165 40.2236 76.0025 39.9633 75.7333L39.18 74.9499C38.0032 73.7841 36.4131 73.1311 34.7567 73.1333C33.0433 73.1333 31.4933 73.8166 30.3567 74.9266L29.5067 75.7766C28.9682 76.3085 28.2419 76.6068 27.485 76.6068C26.7281 76.6068 26.0018 76.3085 25.4633 75.7766L24.6633 74.9766C23.53 73.8533 21.9733 73.1599 20.25 73.1599C18.5267 73.1599 16.97 73.8533 15.8367 74.9766L15.0367 75.7766C14.4982 76.3085 13.7719 76.6068 13.015 76.6068C12.2581 76.6068 11.5318 76.3085 10.9933 75.7766C9.65334 74.4566 7.81001 73.6399 5.77668 73.6399C3.74334 73.6399 1.90334 74.4566 0.56001 75.7766C0.400771 75.9333 0.274302 76.12 0.187976 76.3261C0.101649 76.5321 0.0571899 76.7532 0.0571899 76.9766C0.0571899 77.2 0.101649 77.4211 0.187976 77.6271C0.274302 77.8332 0.400771 78.02 0.56001 78.1766C0.875791 78.4953 1.30473 78.6762 1.75334 78.6799H1.76668C2.20846 78.6813 2.63276 78.5075 2.94668 78.1966C3.31715 77.8241 3.7576 77.5285 4.2427 77.3268C4.7278 77.1251 5.24798 77.0212 5.77334 77.0212C6.29871 77.0212 6.81889 77.1251 7.30399 77.3268C7.78909 77.5285 8.22953 77.8241 8.60001 78.1966C9.73334 79.3166 11.29 80.0099 13.01 80.0099C14.73 80.0099 16.29 79.3166 17.42 78.1966L18.22 77.3966C18.7584 76.8647 19.4848 76.5664 20.2417 76.5664C20.9985 76.5664 21.7249 76.8647 22.2633 77.3966L23.0633 78.1966C24.1833 79.3166 25.73 80.0099 27.44 80.0099H27.4767H27.4733H27.4833C29.19 80.0099 30.7367 79.3266 31.8633 78.2166L32.7367 77.3666C33.2751 76.8347 34.0015 76.5364 34.7583 76.5364C35.5152 76.5364 36.2416 76.8347 36.78 77.3666L37.56 78.1466C38.6867 79.2799 40.2467 79.9799 41.97 79.9833H42.0067C43.7167 79.9833 45.2633 79.2899 46.38 78.1699L47.16 77.3899C47.6984 76.858 48.4248 76.5597 49.1817 76.5597C49.9385 76.5597 50.6649 76.858 51.2033 77.3899L52.0033 78.1899C53.1367 79.3099 54.6933 80.0033 56.4133 80.0033C58.1333 80.0033 59.6933 79.3099 60.8233 78.1899L61.6233 77.3899C62.1618 76.858 62.8881 76.5597 63.645 76.5597C64.4019 76.5597 65.1282 76.858 65.6667 77.3899C65.97 77.6899 66.3867 77.8733 66.85 77.8733H66.8867C67.1061 77.8732 67.3233 77.8286 67.525 77.7421C67.7267 77.6555 67.9087 77.5289 68.06 77.3699C68.221 77.2147 68.3491 77.0287 68.4367 76.823C68.5244 76.6172 68.5697 76.3959 68.57 76.1723C68.5703 75.9487 68.5256 75.7273 68.4386 75.5213C68.3515 75.3153 68.2239 75.1289 68.0633 74.9733L68.07 74.9699Z" fill="#DA9D3D"/>
<path d="M5.69332 70.1434H5.70665C6.80665 70.1434 7.79999 70.59 8.51999 71.3134C9.65332 72.4367 11.21 73.1267 12.93 73.1267C14.65 73.1267 16.21 72.4334 17.34 71.31L18.14 70.51C18.6784 69.9781 19.4048 69.6798 20.1617 69.6798C20.9185 69.6798 21.6449 69.9781 22.1833 70.51L22.9833 71.31C24.1033 72.4334 25.65 73.1267 27.3633 73.1267H27.3966H27.4033C29.11 73.1267 30.6566 72.4434 31.7833 71.3334L32.6566 70.4834C33.1992 69.9474 33.9323 69.6488 34.6948 69.6532C35.4574 69.6576 36.187 69.9646 36.7233 70.5067L37.5033 71.2867C38.63 72.4167 40.19 73.12 41.9133 73.1234H41.9466C43.6566 73.1234 45.2033 72.43 46.3233 71.3067L47.1033 70.5267C47.6417 69.9948 48.3681 69.6965 49.125 69.6965C49.8818 69.6965 50.6082 69.9948 51.1466 70.5267L51.9466 71.3267C53.08 72.45 54.6366 73.14 56.3566 73.14C58.0766 73.14 59.6366 72.4467 60.7666 71.3234L61.5666 70.5234C62.1051 69.9914 62.8315 69.6932 63.5883 69.6932C64.3452 69.6932 65.0715 69.9914 65.61 70.5234C65.9133 70.8234 66.33 71.0067 66.79 71.0067H66.8266C67.0461 71.0066 67.2633 70.962 67.465 70.8755C67.6667 70.789 67.8487 70.6624 68 70.5034C68.1592 70.3467 68.2857 70.1599 68.372 69.9539C68.4583 69.7479 68.5028 69.5267 68.5028 69.3034C68.5028 69.08 68.4583 68.8588 68.372 68.6528C68.2857 68.4468 68.1592 68.26 68 68.1034C66.8666 66.98 65.31 66.29 63.59 66.29C61.87 66.29 60.31 66.9834 59.18 68.1067L58.38 68.9067C57.8415 69.4386 57.1152 69.7369 56.3583 69.7369C55.6014 69.7369 54.8751 69.4386 54.3366 68.9067L53.5366 68.1067C52.4033 66.9834 50.8466 66.2934 49.1266 66.2934C47.4066 66.2934 45.8466 66.9867 44.7166 68.11L43.9366 68.89C43.3995 69.4203 42.6748 69.7174 41.92 69.7167H41.9C41.5256 69.7171 41.1549 69.642 40.8101 69.496C40.4653 69.3499 40.1535 69.1359 39.8933 68.8667L39.11 68.0834C37.9333 66.9199 36.3447 66.2682 34.69 66.27C32.9766 66.27 31.4233 66.9534 30.29 68.0634L29.44 68.9134C28.9015 69.4453 28.1752 69.7435 27.4183 69.7435C26.6615 69.7435 25.9351 69.4453 25.3967 68.9134L24.5967 68.1134C23.4633 66.99 21.9067 66.2967 20.1833 66.2967C18.46 66.2967 16.9033 66.99 15.77 68.1134L14.97 68.9134C14.4315 69.4453 13.7052 69.7435 12.9483 69.7435C12.1915 69.7435 11.4651 69.4453 10.9267 68.9134C9.58665 67.5934 7.74332 66.7767 5.70999 66.7767C3.67665 66.7767 1.83665 67.5934 0.49332 68.9134C0.332016 69.0688 0.203713 69.2552 0.116078 69.4614C0.0284434 69.6676 -0.0167236 69.8893 -0.0167236 70.1134C-0.0167236 70.3374 0.0284434 70.5591 0.116078 70.7653C0.203713 70.9715 0.332016 71.1579 0.49332 71.3134C0.808555 71.6332 1.23756 71.8154 1.68665 71.82H1.69999C2.14177 71.8213 2.56607 71.6475 2.87999 71.3367C3.58332 70.6 4.56999 70.14 5.66999 70.14H5.68665L5.69332 70.1434Z" fill="#DA9D3D"/>
</g>
<defs>
<clipPath id="clip0_9_682">
<rect width="70" height="80" fill="white"/>
</clipPath>
</defs>
</svg>
