<svg width="80" height="80" viewBox="0 0 80 80" fill="none" xmlns="http://www.w3.org/2000/svg">
<path d="M23.3333 73.3333V42.8333C20.5 42.0555 18.1256 40.5 16.21 38.1666C14.2945 35.8333 13.3356 33.1111 13.3333 30V6.66663H20V30H23.3333V6.66663H30V30H33.3333V6.66663H40V30C40 33.1111 39.0422 35.8333 37.1267 38.1666C35.2111 40.5 32.8356 42.0555 30 42.8333V73.3333H23.3333ZM56.6667 73.3333V46.6666H46.6667V23.3333C46.6667 18.7222 48.2922 14.7922 51.5433 11.5433C54.7945 8.2944 58.7245 6.66885 63.3333 6.66663V73.3333H56.6667Z" fill="#DA9D3D"/>
</svg>
