<svg width="17" height="16" viewBox="0 0 17 16" fill="none" xmlns="http://www.w3.org/2000/svg">
<path fill-rule="evenodd" clip-rule="evenodd" d="M14.6667 0H2.66669C1.56369 0 0.666687 0.897 0.666687 2V14C0.666687 15.103 1.56369 16 2.66669 16H8.66669V10.5H6.66669V8H8.66669V6C8.66669 5.20435 8.98276 4.44129 9.54537 3.87868C10.108 3.31607 10.871 3 11.6667 3H13.6667V5.5H12.6667C12.1147 5.5 11.6667 5.448 11.6667 6V8H14.1667L13.1667 10.5H11.6667V16H14.6667C15.7697 16 16.6667 15.103 16.6667 14V2C16.6667 0.897 15.7697 0 14.6667 0Z" fill="white"/>
</svg>
