<svg width="17" height="16" viewBox="0 0 17 16" fill="none" xmlns="http://www.w3.org/2000/svg">
<path d="M8.33334 1.44578C10.4538 1.44578 10.743 1.44578 11.6105 1.44578C12.3815 1.44578 12.7671 1.63855 13.0562 1.73494C13.4418 1.92771 13.7309 2.0241 14.0201 2.31325C14.3092 2.60241 14.502 2.89157 14.5984 3.27711C14.6948 3.56627 14.7912 3.95181 14.8876 4.72289C14.8876 5.59036 14.8876 5.78313 14.8876 8C14.8876 10.2169 14.8876 10.4096 14.8876 11.2771C14.8876 12.0482 14.6948 12.4337 14.5984 12.7229C14.4056 13.1084 14.3092 13.3976 14.0201 13.6867C13.7309 13.9759 13.4418 14.1687 13.0562 14.2651C12.7671 14.3614 12.3815 14.4578 11.6105 14.5542C10.743 14.5542 10.5502 14.5542 8.33334 14.5542C6.11648 14.5542 5.92371 14.5542 5.05624 14.5542C4.28515 14.5542 3.89961 14.3614 3.61045 14.2651C3.22491 14.0723 2.93575 13.9759 2.6466 13.6867C2.35744 13.3976 2.16467 13.1084 2.06828 12.7229C1.9719 12.4337 1.87551 12.0482 1.77913 11.2771C1.77913 10.4096 1.77913 10.2169 1.77913 8C1.77913 5.78313 1.77913 5.59036 1.77913 4.72289C1.77913 3.95181 1.9719 3.56627 2.06828 3.27711C2.26105 2.89157 2.35744 2.60241 2.6466 2.31325C2.93575 2.0241 3.22491 1.83133 3.61045 1.73494C3.89961 1.63855 4.28515 1.54217 5.05624 1.44578C5.92371 1.44578 6.21286 1.44578 8.33334 1.44578ZM8.33334 0C6.11648 0 5.92371 0 5.05624 0C4.18877 0 3.61045 0.192772 3.12853 0.385543C2.6466 0.578314 2.16467 0.867471 1.68274 1.3494C1.20081 1.83133 1.00804 2.21687 0.718886 2.79518C0.526115 3.27711 0.429729 3.85542 0.333344 4.72289C0.333344 5.59036 0.333344 5.87952 0.333344 8C0.333344 10.2169 0.333344 10.4096 0.333344 11.2771C0.333344 12.1446 0.526115 12.7229 0.718886 13.2048C0.911657 13.6867 1.20081 14.1687 1.68274 14.6506C2.16467 15.1325 2.55021 15.3253 3.12853 15.6145C3.61045 15.8072 4.18877 15.9036 5.05624 16C5.92371 16 6.21286 16 8.33334 16C10.4538 16 10.743 16 11.6105 16C12.4779 16 13.0562 15.8072 13.5382 15.6145C14.0201 15.4217 14.502 15.1325 14.9839 14.6506C15.4659 14.1687 15.6586 13.7831 15.9478 13.2048C16.1406 12.7229 16.237 12.1446 16.3333 11.2771C16.3333 10.4096 16.3333 10.1205 16.3333 8C16.3333 5.87952 16.3333 5.59036 16.3333 4.72289C16.3333 3.85542 16.1406 3.27711 15.9478 2.79518C15.755 2.31325 15.4659 1.83133 14.9839 1.3494C14.502 0.867471 14.1165 0.674699 13.5382 0.385543C13.0562 0.192772 12.4779 0.0963856 11.6105 0C10.743 0 10.5502 0 8.33334 0Z" fill="white"/>
<path d="M8.33334 3.85542C6.02009 3.85542 4.18877 5.68675 4.18877 8C4.18877 10.3133 6.02009 12.1446 8.33334 12.1446C10.6466 12.1446 12.4779 10.3133 12.4779 8C12.4779 5.68675 10.6466 3.85542 8.33334 3.85542ZM8.33334 10.6988C6.88756 10.6988 5.63455 9.54217 5.63455 8C5.63455 6.55422 6.79118 5.30121 8.33334 5.30121C9.77913 5.30121 11.0321 6.45783 11.0321 8C11.0321 9.44578 9.77913 10.6988 8.33334 10.6988Z" fill="white"/>
<path d="M12.5743 4.72289C13.1066 4.72289 13.5382 4.29136 13.5382 3.75904C13.5382 3.22671 13.1066 2.79518 12.5743 2.79518C12.042 2.79518 11.6105 3.22671 11.6105 3.75904C11.6105 4.29136 12.042 4.72289 12.5743 4.72289Z" fill="white"/>
</svg>
