<svg width="50" height="50" viewBox="0 0 50 50" fill="none" xmlns="http://www.w3.org/2000/svg">
<path d="M41.5625 43.75C37.2222 43.75 32.934 42.8042 28.6979 40.9125C24.4618 39.0208 20.6076 36.3382 17.1354 32.8646C13.6632 29.3924 10.9812 25.5382 9.08958 21.3021C7.19792 17.066 6.25139 12.7778 6.25 8.4375C6.25 7.8125 6.45833 7.29167 6.875 6.875C7.29167 6.45833 7.8125 6.25 8.4375 6.25H16.875C17.3611 6.25 17.7951 6.41528 18.1771 6.74583C18.559 7.07639 18.7847 7.46667 18.8542 7.91667L20.2083 15.2083C20.2778 15.7639 20.2604 16.2326 20.1562 16.6146C20.0521 16.9965 19.8611 17.3264 19.5833 17.6042L14.5312 22.7083C15.2257 23.9931 16.05 25.234 17.0042 26.4312C17.9583 27.6285 19.009 28.7833 20.1562 29.8958C21.2326 30.9722 22.3611 31.9708 23.5417 32.8917C24.7222 33.8125 25.9722 34.6542 27.2917 35.4167L32.1875 30.5208C32.5 30.2083 32.9083 29.9743 33.4125 29.8187C33.9167 29.6632 34.4111 29.6194 34.8958 29.6875L42.0833 31.1458C42.5694 31.2847 42.9687 31.5368 43.2812 31.9021C43.5937 32.2674 43.75 32.675 43.75 33.125V41.5625C43.75 42.1875 43.5417 42.7083 43.125 43.125C42.7083 43.5417 42.1875 43.75 41.5625 43.75Z" fill="#DA9D3D"/>
</svg>
