<svg width="101" height="101" viewBox="0 0 101 101" fill="none" xmlns="http://www.w3.org/2000/svg">
<path d="M74.7263 89.9375L60.4907 72.3281C60.4288 72.25 60.3669 72.1667 60.3102 72.1094L52.1299 61.9896L59.0672 53.4062L83.1233 83.1719C80.6062 85.7344 77.7849 88 74.7263 89.9375ZM42.9902 96.2969L49.6129 88.099L56.4109 96.5208C54.4715 96.7812 52.4909 96.9219 50.4691 96.9219C47.9314 96.9219 45.4299 96.6979 42.9902 96.2969ZM38.6112 95.349C35.0523 94.3802 31.6533 93.0052 28.4967 91.25L49.5716 65.1823L56.2871 73.4792L38.6112 95.349ZM71.1881 91.9375C67.9644 93.5677 64.5293 94.8438 60.9498 95.6927L52.2279 84.8854L58.8712 76.6719L71.1881 91.9375ZM17.8355 83.151L50.4897 42.7656L56.5089 50.1979L25.0358 89.1302C22.4362 87.3906 20.0379 85.375 17.8355 83.151ZM50.4897 4.04167C75.1854 4.04167 95.3834 23.7865 96.4202 48.4635H88.6215C87.5229 28.5104 71.1055 12.5 51.1499 12.3802C51.0725 12.3802 50.99 12.3802 50.9281 12.3802C40.9941 12.3802 31.5966 16.3177 24.4375 23.4635C17.6756 30.2292 13.735 39.0312 13.2192 48.4635H4.55921C5.60109 23.7865 25.794 4.04167 50.4897 4.04167ZM88.441 76.6719C87.6209 77.8594 86.7647 79.0312 85.8415 80.1406L83.0459 76.6719H88.441ZM94.161 65.0417C93.3048 67.6823 92.2217 70.2083 90.9219 72.6302H79.8068L73.6638 65.0417H94.161ZM86.6822 52.5H96.4202C96.3015 55.4062 95.9044 58.2552 95.2596 61H70.3886L63.5287 52.5H86.6822ZM40.7311 48.4635H29.193C30.7558 37.9427 39.6531 29.8646 50.2885 29.7031C50.3917 29.7031 50.5103 29.7031 50.6083 29.7031C61.2695 29.7031 70.466 37.8802 72.0443 48.4635H60.2277L52.0112 38.3073C51.253 37.3542 49.6696 37.3542 48.9114 38.3073L40.7311 48.4635ZM76.088 48.4635C74.4478 35.5365 63.2089 25.5052 50.2318 25.6667C37.4146 25.8698 26.774 35.7396 25.1751 48.4635H17.2372C17.7581 40.1198 21.2551 32.3281 27.2537 26.3542C33.6545 19.9531 42.0515 16.4167 50.9281 16.4167C50.99 16.4167 51.0725 16.4167 51.1293 16.4167C68.8877 16.5208 83.5256 30.7135 84.6242 48.4635H76.088ZM30.5753 61.0208C30.4928 61 30.4154 61 30.3329 61H5.69909C5.05952 58.2552 4.67784 55.4062 4.53858 52.5H37.4507L30.5753 61.0208ZM21.1984 72.6302H10.0781C8.77832 70.2292 7.70033 67.6823 6.83897 65.0417H27.3362L21.1984 72.6302ZM12.5384 76.6719H17.9386L15.1379 80.1406C14.2198 79.0104 13.3378 77.8594 12.5384 76.6719ZM93.6607 75.901C93.7845 75.7396 93.9031 75.5573 93.9805 75.3594C96.023 71.7448 97.6219 67.8438 98.7412 63.7448C98.7824 63.625 98.8185 63.5052 98.8392 63.3854C99.9223 59.2656 100.5 54.9427 100.5 50.4792C100.479 22.6354 78.0634 0 50.4897 0C22.9159 0 0.5 22.6354 0.5 50.4792C0.5 54.9427 1.07768 59.2448 2.16082 63.3646C2.18145 63.526 2.22271 63.6667 2.27945 63.8073C3.37807 67.8854 4.977 71.7604 7.0195 75.3594C7.09686 75.5573 7.20002 75.7396 7.33928 75.901C9.11873 78.974 11.1973 81.8385 13.5596 84.4635C13.6576 84.6042 13.7763 84.7448 13.9155 84.849C13.9361 84.849 13.9361 84.8698 13.9568 84.8698C16.9793 88.1406 20.3989 90.9844 24.1538 93.3698C24.1744 93.3906 24.1744 93.3906 24.1951 93.4115C24.2363 93.4479 24.2982 93.4688 24.355 93.5104C28.734 96.2344 33.5565 98.2969 38.6731 99.5469C38.7144 99.5677 38.7505 99.5677 38.8124 99.5885C42.5724 100.495 46.4924 101 50.5103 101C59.4488 101 67.8458 98.599 75.1235 94.4375C75.2834 94.3802 75.4278 94.2969 75.5671 94.1979C75.5671 94.1979 75.567 94.1771 75.5877 94.1771C79.8429 91.6719 83.7216 88.5417 87.0639 84.9271C87.0845 84.9062 87.0845 84.9063 87.1051 84.9063C87.2444 84.7865 87.363 84.6667 87.461 84.526C89.8027 81.8385 91.8813 78.974 93.6607 75.901Z" fill="#E6BD7D"/>
</svg>
