<svg width="90" height="80" viewBox="0 0 90 80" fill="none" xmlns="http://www.w3.org/2000/svg">
<g clip-path="url(#clip0_9_690)">
<path d="M76.1867 37.9001V36.0201C76.1831 30.6814 74.0608 25.5625 70.2858 21.7875C66.5109 18.0126 61.3919 15.8903 56.0533 15.8867H20.1333C14.7947 15.8903 9.67579 18.0126 5.90082 21.7875C2.12585 25.5625 0.00353199 30.6814 0 36.0201L0 37.9001C0.00353199 43.2387 2.12585 48.3576 5.90082 52.1326C9.67579 55.9075 14.7947 58.0299 20.1333 58.0334H56.0533C61.3919 58.0299 66.5109 55.9075 70.2858 52.1326C74.0608 48.3576 76.1831 43.2387 76.1867 37.9001ZM21.66 53.5601C17.2574 53.5601 13.0351 51.8111 9.92203 48.698C6.80892 45.5849 5.06 41.3626 5.06 36.9601C5.06 32.5575 6.80892 28.3352 9.92203 25.2221C13.0351 22.109 17.2574 20.3601 21.66 20.3601H54.53C58.9326 20.3601 63.1549 22.109 66.268 25.2221C69.3811 28.3352 71.13 32.5575 71.13 36.9601C71.13 41.3626 69.3811 45.5849 66.268 48.698C63.1549 51.8111 58.9326 53.5601 54.53 53.5601C50.5985 53.0511 47.0169 51.0393 44.5367 47.9467L44.5133 47.9167C43.8441 47.2092 43.0373 46.6458 42.1426 46.2612C41.2478 45.8766 40.2839 45.6788 39.31 45.6801C37.2 45.6801 35.3067 46.5901 33.9933 48.0401L33.9867 48.0467C32.4403 49.7838 30.5435 51.1735 28.4211 52.1244C26.2987 53.0753 23.999 53.5657 21.6733 53.5634H21.6533L21.66 53.5601Z" fill="#DA9D3D"/>
<path d="M87.0433 -4.72004e-05H80.7667C80.235 0.00171037 79.7256 0.213691 79.3497 0.589633C78.9737 0.965576 78.7618 1.47496 78.76 2.00662V12.6733C78.76 13.7166 79.5633 14.5733 80.5833 14.6566H80.59V53.1433C80.5856 57.0654 79.0256 60.8255 76.2523 63.5989C73.4789 66.3722 69.7188 67.9322 65.7967 67.9366H46.2233C45.5645 66.3316 44.4439 64.9585 43.0036 63.9911C41.5634 63.0239 39.8683 62.506 38.1333 62.5033C35.8153 62.5033 33.5923 63.4241 31.9532 65.0632C30.3142 66.7022 29.3933 68.9253 29.3933 71.2433C29.3933 73.5613 30.3142 75.7843 31.9532 77.4234C33.5923 79.0625 35.8153 79.9833 38.1333 79.9833H38.1567C39.8801 79.9831 41.5648 79.4715 42.9972 78.5132C44.4297 77.5548 45.5455 76.1929 46.2033 74.6L46.2233 74.5433H65.7967C71.4781 74.538 76.9253 72.279 80.943 68.2619C84.9606 64.2449 87.2205 58.798 87.2267 53.1166V14.66C87.7203 14.6143 88.1792 14.386 88.5134 14.0197C88.8475 13.6535 89.033 13.1757 89.0333 12.68V1.98662C89.0333 1.45911 88.8242 0.953103 88.4519 0.579472C88.0795 0.20584 87.5742 -0.00494961 87.0467 -0.00671387L87.0433 -4.72004e-05Z" fill="#DA9D3D"/>
</g>
<defs>
<clipPath id="clip0_9_690">
<rect width="90" height="80" fill="white"/>
</clipPath>
</defs>
</svg>
