<svg width="80" height="80" viewBox="0 0 80 80" fill="none" xmlns="http://www.w3.org/2000/svg">
<path d="M40 73.3333C34.7778 72.6666 30.1111 71.3333 26 69.3333C21.8889 67.3333 18.4033 64.7222 15.5433 61.5C12.6789 58.2777 10.4978 54.5422 9 50.2933C7.50222 46.0444 6.75222 41.3355 6.75 36.1666C12.8611 36.7777 18.0278 37.8888 22.25 39.5C26.4722 41.1111 29.9033 43.3888 32.5433 46.3333C35.1811 49.2777 37.0833 52.9588 38.25 57.3766C39.4167 61.7944 40 67.1133 40 73.3333ZM40 45.25C38.7222 43.3055 36.9867 41.3888 34.7933 39.5C32.6 37.6111 30.0578 35.8888 27.1667 34.3333C27.5 32 28.0556 29.5833 28.8333 27.0833C29.6111 24.5833 30.5556 22.1255 31.6667 19.71C32.7778 17.2922 34.0422 14.9722 35.46 12.75C36.8778 10.5277 38.3911 8.49996 40 6.66663C41.6111 8.49996 43.1256 10.5277 44.5433 12.75C45.9611 14.9722 47.2244 17.2922 48.3333 19.71C49.4444 22.1255 50.3889 24.5822 51.1667 27.08C51.9444 29.5777 52.5 31.9944 52.8333 34.33C49.9444 35.83 47.4033 37.5244 45.21 39.4133C43.0167 41.3022 41.28 43.2477 40 45.25ZM46.6667 72C46.5556 68.1111 46.2644 64.5133 45.7933 61.2066C45.3222 57.9 44.5856 54.7755 43.5833 51.8333C46.1944 47.3333 49.7922 43.6666 54.3767 40.8333C58.9611 38 65.2522 36.4444 73.25 36.1666C73.3056 44.9444 70.9578 52.5144 66.2067 58.8766C61.4556 65.2388 54.9422 69.6133 46.6667 72Z" fill="#DA9D3D"/>
</svg>
