<svg width="101" height="80" viewBox="0 0 101 80" fill="none" xmlns="http://www.w3.org/2000/svg">
<g clip-path="url(#clip0_9_678)">
<path d="M30.1266 48.5281C30.6797 49.0374 32.5125 49.9999 35.5 49.9999C38.4875 49.9999 40.3219 49.0374 40.8734 48.5281C43.3766 46.2203 46.2641 44.9999 49.2266 44.9999H51.7734C54.7359 44.9999 57.625 46.2203 60.1266 48.5281C60.6797 49.0374 62.5125 49.9999 65.5 49.9999C68.4875 49.9999 70.3219 49.0374 70.8734 48.5281C73.1953 46.3859 75.8547 45.2281 78.5906 45.0656L60.9594 32.4718L63.7719 30.4624C64.3406 30.0593 65.0656 29.9124 65.7437 30.0546L81.4234 33.4187C85.4719 34.2828 89.4609 31.7046 90.3297 27.6562C91.1969 23.6062 88.6188 19.6187 84.5672 18.7499L68.8875 15.3859C64.0859 14.3578 59.0406 15.4046 55.05 18.2578L42.5469 27.1906C40.925 28.3453 39.5219 29.7593 38.3719 31.3999L27.6484 46.7187C28.5031 47.2234 29.3391 47.8015 30.1266 48.5281ZM98 54.9999H95.5C91.4312 54.9999 88.3437 53.6843 86.7359 52.2031C85.3453 50.9203 83.6641 49.9999 81.7719 49.9999H79.225C77.3328 49.9999 75.6516 50.9203 74.2609 52.2031C72.6563 53.6843 69.5688 54.9999 65.5 54.9999C61.4312 54.9999 58.3438 53.6843 56.7359 52.2031C55.3453 50.9203 53.6641 49.9999 51.7719 49.9999H49.225C47.3328 49.9999 45.6516 50.9203 44.2609 52.2031C42.6563 53.6843 39.5688 54.9999 35.5 54.9999C31.4312 54.9999 28.3438 53.6843 26.7359 52.2031C25.3453 50.9203 23.6641 49.9999 21.7719 49.9999H19.225C17.3328 49.9999 15.6516 50.9203 14.2609 52.2031C12.6562 53.6843 9.56875 54.9999 5.5 54.9999H3C1.61875 54.9999 0.5 56.1187 0.5 57.4999V62.4999C0.5 63.8812 1.61875 64.9999 3 64.9999H5.5C11.5344 64.9999 16.8625 63.0953 20.5 60.0249C24.1375 63.0968 29.4656 64.9999 35.5 64.9999C41.5344 64.9999 46.8625 63.0953 50.5 60.0249C54.1375 63.0968 59.4656 64.9999 65.5 64.9999C71.5344 64.9999 76.8625 63.0953 80.5 60.0249C84.1375 63.0968 89.4656 64.9999 95.5 64.9999H98C99.3813 64.9999 100.5 63.8812 100.5 62.4999V57.4999C100.5 56.1187 99.3813 54.9999 98 54.9999ZM18 39.9999C24.9031 39.9999 30.5 34.4031 30.5 27.4999C30.5 20.5968 24.9031 14.9999 18 14.9999C11.0969 14.9999 5.5 20.5968 5.5 27.4999C5.5 34.4031 11.0969 39.9999 18 39.9999Z" fill="#DA9D3D"/>
</g>
<defs>
<clipPath id="clip0_9_678">
<rect width="100" height="80" fill="white" transform="translate(0.5)"/>
</clipPath>
</defs>
</svg>
