<svg width="81" height="80" viewBox="0 0 81 80" fill="none" xmlns="http://www.w3.org/2000/svg">
<path d="M47.8744 69.5008C48.4261 69.4119 48.9843 69.3696 49.5432 69.3744C51.2584 69.3744 52.9032 69.7648 54.3624 70.4432C55.7816 71.0608 57.3688 71.4352 59.0312 71.4352C60.6936 71.4352 62.3032 71.0608 63.7224 70.4432C65.2254 69.7415 66.8636 69.3767 68.5224 69.3744C70.244 69.3744 71.5368 69.7648 72.9896 70.4432C74.4088 71.0608 75.7 71.4352 77.3 71.4352V78.4C75.7 78.4 74.4072 78.0256 72.9896 77.3824C71.5368 76.7328 70.0664 76.3328 68.3448 76.3328C66.6424 76.3328 65.0872 76.7328 63.6344 77.3824C62.2136 78.0256 60.6504 78.4 58.988 78.4C57.3256 78.4 55.7592 78.0256 54.3416 77.3824C52.8301 76.6996 51.1921 76.342 49.5336 76.3328C47.8312 76.3328 46.188 76.7328 44.7128 77.3824C43.2473 78.0503 41.656 78.3972 40.0456 78.4C38.4346 78.3974 36.8427 78.0504 35.3768 77.3824C33.864 76.6984 32.2241 76.3408 30.564 76.3328C28.9007 76.341 27.2578 76.6986 25.7416 77.3824C24.2787 78.0494 22.6902 78.3964 21.0824 78.4C19.4714 78.3976 17.8795 78.0506 16.4136 77.3824C14.896 76.7027 13.2539 76.3453 11.5912 76.3328C9.87118 76.3328 8.22478 76.7328 6.77198 77.3824C5.30483 78.0503 3.71199 78.3972 2.09998 78.4V71.4352C3.70887 71.4285 5.29917 71.0908 6.77198 70.4432C8.28114 69.7395 9.92603 69.3747 11.5912 69.3744C13.292 69.3744 14.9368 69.7648 16.4136 70.4432C17.8296 71.0608 19.42 71.4352 21.0824 71.4352C22.687 71.4276 24.273 71.09 25.7416 70.4432C26.5742 70.0577 27.4504 69.7746 28.3512 69.6L72.588 61.7712C74.0216 61.4336 75.972 60.4416 76.6504 58.7328C76.7848 58.408 77.2536 58.3152 77.6504 58.3328C78.372 58.3744 78.9 58.992 78.9 59.7072C78.9 60.8336 78.028 63.9872 73.1944 64.9616L47.8744 69.5008ZM9.49198 14.3056C13.0264 14.3056 15.9016 11.4528 15.9016 7.94238C15.9016 4.43358 13.0264 1.59998 9.49198 1.59998C5.95918 1.59998 3.10318 4.43358 3.10318 7.94238C3.10464 8.77974 3.27109 9.60862 3.59299 10.3816C3.91489 11.1547 4.38594 11.8567 4.97924 12.4476C5.57254 13.0385 6.27645 13.5068 7.05076 13.8256C7.82507 14.1444 8.65461 14.3075 9.49198 14.3056ZM28.1032 65.656C28.4264 67.0656 30.1464 68.416 31.9432 68.416L31.9224 68.4352C32.4565 68.4373 32.9857 68.3341 33.4799 68.1315C33.9741 67.9289 34.4235 67.6309 34.8024 67.2545C35.1814 66.8781 35.4824 66.4307 35.6883 65.9379C35.8942 65.445 36.0009 64.9165 36.0024 64.3824L35.9272 63.7232L31.0536 42.9488C30.6376 41.616 29.3688 40.3568 28.0648 39.8304L20.892 35.552L17.6216 21.552L37.7784 21.5152C39.4248 21.5152 40.7496 20.4032 40.7496 18.768C40.7496 17.136 39.4248 16.0016 37.7784 16.0016H8.67758C5.77038 16.0016 4.42478 17.8672 4.76718 19.6688L8.88878 38.1312C9.21198 39.8768 10.3624 41.2912 11.916 42.0624L12.0088 42.0736L24.0056 49.064L28.1032 65.656ZM42.1 19.2H78.9V20.8H42.1V19.2Z" fill="#DA9D3D"/>
</svg>
