<svg width="50" height="50" viewBox="0 0 50 50" fill="none" xmlns="http://www.w3.org/2000/svg">
<path d="M34.0833 29.1665C34.25 27.7915 34.375 26.4165 34.375 24.9998C34.375 23.5832 34.25 22.2082 34.0833 20.8332H41.125C41.4583 22.1665 41.6667 23.5623 41.6667 24.9998C41.6667 26.4373 41.4583 27.8332 41.125 29.1665M30.3958 40.7498C31.6458 38.4373 32.6042 35.9373 33.2708 33.3332H39.4167C37.3983 36.8087 34.1961 39.4415 30.3958 40.7498ZM29.875 29.1665H20.125C19.9167 27.7915 19.7917 26.4165 19.7917 24.9998C19.7917 23.5832 19.9167 22.1873 20.125 20.8332H29.875C30.0625 22.1873 30.2083 23.5832 30.2083 24.9998C30.2083 26.4165 30.0625 27.7915 29.875 29.1665ZM25 41.5832C23.2708 39.0832 21.875 36.3123 21.0208 33.3332H28.9792C28.125 36.3123 26.7292 39.0832 25 41.5832ZM16.6667 16.6665H10.5833C12.5809 13.1815 15.7808 10.5446 19.5833 9.24984C18.3333 11.5623 17.3958 14.0623 16.6667 16.6665ZM10.5833 33.3332H16.6667C17.3958 35.9373 18.3333 38.4373 19.5833 40.7498C15.7888 39.4408 12.5934 36.8076 10.5833 33.3332ZM8.87499 29.1665C8.54166 27.8332 8.33332 26.4373 8.33332 24.9998C8.33332 23.5623 8.54166 22.1665 8.87499 20.8332H15.9167C15.75 22.2082 15.625 23.5832 15.625 24.9998C15.625 26.4165 15.75 27.7915 15.9167 29.1665M25 8.39567C26.7292 10.8957 28.125 13.6873 28.9792 16.6665H21.0208C21.875 13.6873 23.2708 10.8957 25 8.39567ZM39.4167 16.6665H33.2708C32.6188 14.0862 31.6533 11.5955 30.3958 9.24984C34.2292 10.5623 37.4167 13.2082 39.4167 16.6665ZM25 4.1665C13.4792 4.1665 4.16666 13.5415 4.16666 24.9998C4.16666 30.5252 6.36159 35.8242 10.2686 39.7312C12.2032 41.6658 14.4998 43.2004 17.0274 44.2473C19.555 45.2943 22.2641 45.8332 25 45.8332C30.5253 45.8332 35.8244 43.6382 39.7314 39.7312C43.6384 35.8242 45.8333 30.5252 45.8333 24.9998C45.8333 22.264 45.2945 19.5549 44.2475 17.0273C43.2005 14.4996 41.6659 12.203 39.7314 10.2684C37.7968 8.33389 35.5002 6.79932 32.9726 5.75235C30.4449 4.70537 27.7359 4.1665 25 4.1665Z" fill="#DA9D3D"/>
</svg>
